<svg xmlns="http://www.w3.org/2000/svg" viewBox="0 0 512 512" width="512" height="512">
  <defs>
    <linearGradient id="tile" x1="0" y1="0" x2="0" y2="1">
      <stop offset="0%" stop-color="#F4E8DA"/>
      <stop offset="100%" stop-color="#E8D4BF"/>
    </linearGradient>
    <radialGradient id="sheen" cx="32%" cy="22%" r="75%">
      <stop offset="0%" stop-color="#ffffff" stop-opacity="0.5"/>
      <stop offset="55%" stop-color="#ffffff" stop-opacity="0"/>
    </radialGradient>
    <linearGradient id="red" x1="0" y1="0" x2="0" y2="1">
      <stop offset="0%" stop-color="#E2533C"/>
      <stop offset="100%" stop-color="#C63C28"/>
    </linearGradient>
    <filter id="soft" x="-20%" y="-20%" width="140%" height="150%">
      <feGaussianBlur in="SourceAlpha" stdDeviation="9"/>
      <feOffset dy="9" result="b"/>
      <feComponentTransfer in="b" result="s"><feFuncA type="linear" slope="0.22"/></feComponentTransfer>
      <feMerge><feMergeNode in="s"/><feMergeNode in="SourceGraphic"/></feMerge>
    </filter>
  </defs>

  <!-- tessera clay -->
  <rect width="512" height="512" fill="url(#tile)"/>
  <rect width="512" height="512" fill="url(#sheen)"/>

  <!-- dispensa a scaffali con barattoli a vista -->
  <g filter="url(#soft)" stroke="#2B2A28" stroke-linecap="round" stroke-linejoin="round">
    <!-- mobile -->
    <rect x="138" y="118" width="236" height="297" rx="40" fill="#FBF4EC" stroke-width="22"/>
    <!-- ripiani -->
    <line x1="138" y1="230" x2="374" y2="230" stroke-width="15"/>
    <line x1="138" y1="328" x2="374" y2="328" stroke-width="15"/>

    <!-- ripiano alto: due barattoli (uno col tappo pomodoro) -->
    <rect x="179" y="160" width="46" height="61" rx="13" fill="none" stroke-width="13"/>
    <rect x="176" y="150" width="52" height="18" rx="8" fill="url(#red)" stroke="none"/>
    <rect x="266" y="170" width="46" height="51" rx="13" fill="none" stroke-width="13"/>

    <!-- ripiano centrale: lattina pomodoro + barattolo tondo -->
    <rect x="189" y="256" width="42" height="62" rx="11" fill="url(#red)" stroke="none"/>
    <circle cx="292" cy="287" r="31" fill="none" stroke-width="13"/>

    <!-- ripiano basso: scatola -->
    <rect x="224" y="358" width="64" height="42" rx="11" fill="none" stroke-width="13"/>
  </g>
</svg>
