<svg xmlns="http://www.w3.org/2000/svg" viewBox="0 0 512 512">
  <!-- Icona dell'app: cappello da chef e sacchetto della spesa (oggetto simbolo,
       come in Barattoli.jsx) in nero sull'arancio del marchio. Quadrato pieno:
       gli angoli li arrotonda iOS. -->
  <rect width="512" height="512" fill="#ff7a1a"/>
  <g transform="translate(40 40) scale(9)" fill="none" stroke-linecap="round" stroke-linejoin="round">
    <g transform="translate(16.5 -1.5) rotate(11 18 26)">
      <path d="M12.5 17V12.5Q12.5 6.5 18 6.5Q23.5 6.5 23.5 12.5V17" stroke="#0a0a0a" stroke-width="2.6"/>
      <path d="M6.5 17H29.5L28 42.5Q27.9 44 26.4 44H9.6Q8.1 44 8 42.5Z" fill="#0a0a0a" stroke="#0a0a0a" stroke-width="2.6"/>
      <path d="M9 21.5H27" stroke="#ff7a1a" stroke-width="1.8"/>
    </g>
    <g transform="translate(0.5 3) rotate(-6 19 26)">
      <g fill="#ff7a1a" stroke="#0a0a0a" stroke-width="5.2">
        <circle cx="12" cy="15.5" r="6"/><circle cx="19" cy="11" r="7.2"/><circle cx="26" cy="15.5" r="6"/>
        <path d="M12 15H26V35H12Z"/>
      </g>
      <g fill="#ff7a1a">
        <circle cx="12" cy="15.5" r="6"/><circle cx="19" cy="11" r="7.2"/><circle cx="26" cy="15.5" r="6"/>
        <path d="M12 15H26V35H12Z"/>
      </g>
      <rect x="10.5" y="34" width="17" height="6.5" rx="2" fill="#ff7a1a" stroke="#0a0a0a" stroke-width="2.6"/>
      <path d="M15.5 34V21.5M22.5 34V21.5" stroke="#0a0a0a" stroke-width="2.2"/>
    </g>
  </g>
</svg>
