<?xml version="1.0" encoding="UTF-8" standalone="no"?><!DOCTYPE svg PUBLIC "-//W3C//DTD SVG 1.1//EN" "http://www.w3.org/Graphics/SVG/1.1/DTD/svg11.dtd"><svg width="100%" height="100%" viewBox="0 0 4267 4267" version="1.1" xmlns="http://www.w3.org/2000/svg" xmlns:xlink="http://www.w3.org/1999/xlink" xml:space="preserve" xmlns:serif="http://www.serif.com/" style="fill-rule:evenodd;clip-rule:evenodd;stroke-linejoin:round;stroke-miterlimit:2;"><rect id="Tavola-da-disegno1" serif:id="Tavola da disegno1" x="0" y="0" width="4266.667" height="4266.667" style="fill:none;"/><g id="Tavola-da-disegno11" serif:id="Tavola da disegno1"><g id="crema"><path d="M4266.667,682.667l0,2901.333c0,376.774 -305.893,682.667 -682.667,682.667l-2901.333,0c-376.774,0 -682.667,-305.893 -682.667,-682.667l0,-2901.333c0,-376.774 305.893,-682.667 682.667,-682.667l2901.333,0c376.774,0 682.667,305.893 682.667,682.667Z" style="fill:#f4f1e9;"/><path d="M2133.333,374.841c616.296,568.889 924.444,1042.963 924.444,1422.222c0,474.074 -308.148,900.741 -924.444,1280c-616.296,-379.259 -924.444,-805.926 -924.444,-1280c0,-379.259 308.148,-853.333 924.444,-1422.222Z" style="fill:#ff4306;fill-rule:nonzero;"/><path d="M1981.099,1356.832l266.238,-100.13c292.108,-109.86 622.876,40.108 732.736,332.215c109.86,292.108 -40.108,622.876 -332.215,732.736l-266.238,100.13l-400.521,-1064.951Zm299.809,191.14l66.559,-25.033c146.054,-54.93 311.438,20.054 366.368,166.108c54.93,146.054 -20.054,311.438 -166.108,366.368l-66.559,25.033l-200.26,-532.476Z" style="fill:#f4f1e9;"/><circle cx="1280" cy="2977.649" r="533.333" style="fill:#0a0a0a;"/><circle cx="2133.333" cy="2728.76" r="622.222" style="fill:#0a0a0a;"/><circle cx="2986.667" cy="2977.649" r="533.333" style="fill:#0a0a0a;"/><rect x="1175.719" y="2977.649" width="1914.208" height="533.333" style="fill:#0a0a0a;"/><path d="M3093.333,3485.843l0,395.566c0,5.749 -4.668,10.417 -10.417,10.417l-1899.167,0c-5.749,0 -10.417,-4.668 -10.417,-10.417l0,-395.566c0,-5.749 4.668,-10.417 10.417,-10.417l1899.167,0c5.749,0 10.417,4.668 10.417,10.417Z" style="fill:#0a0a0a;"/></g></g></svg>