<svg xmlns="http://www.w3.org/2000/svg" viewBox="0 0 512 512">
  <!-- Icona dell'app: sacchetto della spesa e cappello da chef (oggetto
       simbolo, come in Barattoli.jsx) in nero sull'arancio del marchio. Quadrato pieno: gli
       angoli li arrotonda iOS. -->
  <rect width="512" height="512" fill="#ff7a1a"/>
  <g transform="translate(40 36) scale(9)" fill="none" stroke-linecap="round" stroke-linejoin="round">
    <g transform="translate(17 -1) rotate(9 14 26)" fill="#0a0a0a" stroke="#0a0a0a" stroke-width="2.6">
      <path d="M8 19H28L30.5 41Q30.8 43 28.8 43H7.2Q5.2 43 5.5 41Z"/>
        <path d="M13 19V15Q13 10 18 10Q23 10 23 15V19" fill="none"/>
    </g>
    <g transform="translate(1 3) rotate(-5 18 30)" stroke="#0a0a0a">
      <path d="M10 31V25Q4 24 4.6 17.4Q5.4 11 12 11.8Q14 5.5 19 5.5Q24 5.5 26 11.8Q32.6 11 33.4 17.4Q34 24 28 25V31Z" fill="#ff7a1a" stroke-width="2.6"/>
        <rect x="10" y="31" width="18" height="7.5" rx="1.8" fill="#ff7a1a" stroke-width="2.6"/>
        <path d="M15 25V20.5M23 25V20.5" stroke-width="2.2"/>
        <path d="M14 34.7h10" stroke-width="1.7" stroke-dasharray="1.6 2.4"/>
    </g>
  </g>
</svg>
