<svg xmlns="http://www.w3.org/2000/svg" viewBox="0 0 512 512">
  <!-- Icona dell'app: i due barattoli di conserva (oggetto simbolo, come in
       Barattoli.jsx) in nero sull'arancio del marchio. Quadrato pieno: gli
       angoli li arrotonda iOS. -->
  <rect width="512" height="512" fill="#ff7a1a"/>
  <g transform="translate(40 36) scale(9)" fill="none" stroke-linecap="round" stroke-linejoin="round">
    <g transform="translate(17 -1) rotate(9 14 26)" fill="#0a0a0a" stroke="#0a0a0a" stroke-width="2.6">
      <path d="M7 20H25V40Q25 43 22 43H10Q7 43 7 40Z"/>
        <path d="M5 20L7 12H25L27 20L24.5 22L22 20L19.5 22L17 20L14.5 22L12 20L9.5 22L7 20Z"/>
    </g>
    <g transform="translate(1 3) rotate(-5 18 30)" stroke="#0a0a0a">
      <path d="M8 23H28V39Q28 43 24 43H12Q8 43 8 39Z" fill="#ff7a1a" stroke-width="2.6"/>
        <path d="M6 23L8 14H28L30 23L27 25.5L24 23L21 25.5L18 23L15 25.5L12 23L9 25.5L6 23Z" fill="#ff7a1a" stroke-width="2.6"/>
        <path d="M7.4 18.5H28.6" stroke-width="2.2"/>
        <path d="M11 30q2.3-1.8 4.6 0t4.6 0t4.6 0" stroke-width="2.2"/>
        <circle cx="13" cy="36" r="1.8" fill="#0a0a0a" stroke-width="1"/>
        <circle cx="18.5" cy="38.5" r="1.8" fill="#0a0a0a" stroke-width="1"/>
        <circle cx="23.5" cy="35.5" r="1.8" fill="#0a0a0a" stroke-width="1"/>
    </g>
  </g>
</svg>
